<svg width="151" height="37" viewBox="0 0 151 37" fill="none" xmlns="http://www.w3.org/2000/svg">
<g clip-path="url(#clip0_2001_503)">
<path d="M50.5816 31.4827C50.4242 31.2516 50.1621 31.1133 49.8816 31.1133H30.4367C29.9699 31.1133 29.5914 31.4897 29.5914 31.9541V33.6358H20.2914V31.9541C20.2914 31.4897 19.9129 31.1133 19.4461 31.1133H0.846493C0.37963 31.1129 0.000769622 31.4894 0.000396729 31.9537C0.000396729 32.0613 0.0209059 32.1674 0.0611784 32.2671L0.350171 32.9852C1.34692 35.4609 3.38292 36.9998 5.67211 36.9998H45.056C47.3385 36.9998 49.3812 35.4609 50.3821 32.9852L50.6711 32.2671C50.7743 32.0071 50.7404 31.713 50.5816 31.4827ZM5.67211 35.3181C4.09701 35.2284 2.7132 34.2474 2.1147 32.7953H18.6007V34.477C18.6007 34.9413 18.9792 35.3178 19.4461 35.3178H5.67211V35.3181ZM45.056 35.3181H30.4367C30.9036 35.3181 31.2821 34.9417 31.2821 34.4773V32.7957H48.6134C48.0146 34.2474 46.6311 35.2284 45.056 35.3185V35.3181Z" fill="white"/>
<path d="M47.3452 0H3.38255C2.91569 0 2.5372 0.376461 2.5372 0.840825V29.4318C2.5372 29.8962 2.91569 30.2727 3.38255 30.2727H47.3452C47.8121 30.2727 48.1906 29.8962 48.1906 29.4318V0.840825C48.1906 0.376461 47.8121 0 47.3452 0ZM46.4999 28.591H4.2279V1.68202H46.4999V28.591Z" fill="white"/>
<path d="M57.0822 23.9299V0.320801H60.7746L65.639 11.6881V0.320801H69.9761V23.9299H66.4303L61.5659 11.6881V23.9299H57.0822Z" fill="white"/>
<path d="M79.5778 24.2796C77.7998 24.2796 76.3932 23.9688 75.3577 23.3468C74.3222 22.7248 73.5801 21.8313 73.1304 20.6652C72.6811 19.4991 72.4566 18.1101 72.4566 16.497V7.72382C72.4566 6.0915 72.6815 4.70212 73.1304 3.55568C73.5798 2.40923 74.3222 1.53021 75.3577 0.917854C76.3932 0.305873 77.7998 -0.000488281 79.5778 -0.000488281C81.3751 -0.000488281 82.7962 0.305502 83.8414 0.917854C84.8866 1.52984 85.6339 2.40923 86.0833 3.55568C86.5326 4.70212 86.7571 6.0915 86.7571 7.72382V16.497C86.7571 18.1097 86.5326 19.4991 86.0833 20.6652C85.6339 21.8309 84.8866 22.7248 83.8414 23.3468C82.7962 23.9688 81.3751 24.2796 79.5778 24.2796ZM79.5778 20.578C80.1248 20.578 80.5253 20.4419 80.7792 20.17C81.0332 19.8982 81.1995 19.5484 81.2774 19.1208C81.3557 18.6931 81.3945 18.2562 81.3945 17.8089V6.44163C81.3945 5.97541 81.3553 5.5333 81.2774 5.11567C81.1991 4.69767 81.0332 4.35311 80.7792 4.08087C80.5253 3.80863 80.1248 3.67288 79.5778 3.67288C79.0699 3.67288 78.6888 3.809 78.4348 4.08087C78.1809 4.35311 78.015 4.69767 77.9367 5.11567C77.8583 5.5333 77.8196 5.97541 77.8196 6.44163V17.8089C77.8196 18.2558 77.8539 18.6931 77.9221 19.1208C77.9907 19.5484 78.147 19.8982 78.3912 20.17C78.6355 20.4423 79.0311 20.578 79.5781 20.578H79.5778Z" fill="white"/>
<path d="M96.066 24.2797C94.2493 24.2797 92.8278 23.9833 91.8023 23.3906C90.7765 22.7979 90.0587 21.9334 89.6485 20.7966C89.2383 19.6598 89.0332 18.2656 89.0332 16.614V0.320801H94.2202V17.401C94.2202 17.8869 94.2593 18.3728 94.3373 18.8583C94.4156 19.3441 94.5864 19.7425 94.85 20.0533C95.1136 20.3641 95.519 20.5195 96.066 20.5195C96.6324 20.5195 97.0426 20.3641 97.2966 20.0533C97.5505 19.7425 97.7116 19.3441 97.7802 18.8583C97.8484 18.3724 97.8827 17.8865 97.8827 17.401V0.320801H103.099V16.614C103.099 18.2656 102.889 19.6598 102.469 20.7966C102.049 21.9334 101.331 22.7979 100.315 23.3906C99.299 23.9833 97.8827 24.2797 96.0656 24.2797H96.066Z" fill="white"/>
<path d="M107.836 23.9299V4.19742H104.261V0.320801H116.656V4.19742H113.111V23.9299H107.836Z" fill="white"/>
<path d="M117.584 23.93V19.4414H122.097V23.93H117.584Z" fill="#107FBA"/>
<path d="M131.259 24.2797C129.442 24.2797 128.021 23.9833 126.995 23.3906C125.969 22.7979 125.252 21.9334 124.841 20.7966C124.431 19.6598 124.226 18.2656 124.226 16.614V0.320801H129.413V17.401C129.413 17.8869 129.452 18.3728 129.53 18.8583C129.609 19.3441 129.779 19.7425 130.043 20.0533C130.307 20.3641 130.712 20.5195 131.259 20.5195C131.825 20.5195 132.236 20.3641 132.49 20.0533C132.743 19.7425 132.905 19.3441 132.973 18.8583C133.041 18.3724 133.076 17.8865 133.076 17.401V0.320801H138.292V16.614C138.292 18.2656 138.082 19.6598 137.662 20.7966C137.242 21.9334 136.523 22.7979 135.508 23.3906C134.492 23.9833 133.076 24.2797 131.259 24.2797H131.259Z" fill="#107FBA"/>
<path d="M139.982 23.9299V20.7821L145.784 3.8473H140.245V0.320801H150.941V3.26461L145.051 20.403H151V23.9299H139.982Z" fill="#107FBA"/>
<path d="M57.0826 36.2365L57.1739 31.3184H57.8519L58.7248 35.3077L59.6037 31.3184H60.2753L60.367 36.2365H59.8114L59.7562 32.6662L58.9202 36.2365H58.5294L57.699 32.6662L57.6442 36.2365H57.0826Z" fill="white"/>
<path d="M63.5631 36.2363L64.6132 31.3179H65.2788L66.3348 36.2363H65.6815L65.4555 34.9975H64.4484L64.2105 36.2363H63.5631ZM64.5397 34.5057H65.3638L64.9488 32.2893L64.5397 34.5057Z" fill="white"/>
<path d="M69.5428 36.2365V31.3184H71.4233V31.8283H70.2327V36.2365H69.5428Z" fill="white"/>
<path d="M74.2163 36.2363L75.2664 31.3179H75.932L76.988 36.2363H76.3347L76.1087 34.9975H75.1016L74.8637 36.2363H74.2163ZM75.1929 34.5057H76.017L75.602 32.2893L75.1929 34.5057Z" fill="white"/>
<path d="M81.277 36.2915C81.0086 36.2915 80.7845 36.2411 80.6055 36.1398C80.4265 36.0386 80.2919 35.8928 80.2024 35.7025C80.1129 35.5123 80.0681 35.2875 80.0681 35.0286V34.8647H80.7155C80.7155 34.8929 80.7155 34.9225 80.7155 34.9526C80.7155 34.983 80.7173 35.0101 80.7214 35.0346C80.7296 35.2452 80.7703 35.4169 80.8434 35.5505C80.9165 35.684 81.0611 35.7508 81.2767 35.7508C81.4355 35.7508 81.5556 35.7133 81.6369 35.6384C81.7182 35.5635 81.7734 35.4581 81.8017 35.3227C81.83 35.187 81.8442 35.0305 81.8442 34.8521C81.8442 34.5969 81.7872 34.3844 81.6734 34.2145C81.5593 34.0443 81.3438 33.9493 81.0261 33.9289C81.0097 33.9248 80.9907 33.923 80.9683 33.923C80.9459 33.923 80.9235 33.923 80.9012 33.923C80.8788 33.923 80.8575 33.923 80.837 33.923V33.4008C80.8534 33.4008 80.8724 33.4008 80.8948 33.4008C80.9172 33.4008 80.9396 33.3996 80.9619 33.3978C80.9843 33.3959 81.0015 33.3948 81.0138 33.3948C81.3274 33.3744 81.544 33.2924 81.6641 33.1489C81.7842 33.005 81.8442 32.804 81.8442 32.5447C81.8442 32.3222 81.8006 32.143 81.713 32.0073C81.6253 31.8715 81.4698 31.8037 81.2461 31.8037C81.0302 31.8037 80.8758 31.8715 80.7822 32.0073C80.6886 32.143 80.6338 32.32 80.6174 32.5384C80.6174 32.5629 80.6174 32.5881 80.6174 32.6144C80.6174 32.6408 80.6174 32.6679 80.6174 32.6964H79.9641V32.5325C79.9641 32.2695 80.0129 32.0448 80.1106 31.8586C80.2083 31.6724 80.3508 31.5285 80.538 31.4276C80.7252 31.3263 80.953 31.2759 81.2219 31.2759C81.4944 31.2759 81.7256 31.3274 81.9147 31.4305C82.1041 31.5337 82.2484 31.6794 82.348 31.8678C82.4476 32.0559 82.4975 32.2818 82.4975 32.5447C82.4975 32.8403 82.4334 33.081 82.3051 33.2672C82.1768 33.4534 82.0049 33.5769 81.7894 33.6378C81.9359 33.6863 82.062 33.7631 82.1679 33.8685C82.2738 33.9738 82.3551 34.1084 82.4121 34.2724C82.4692 34.4363 82.4975 34.6295 82.4975 34.8521C82.4975 35.1436 82.4569 35.3977 82.3756 35.6143C82.2943 35.8309 82.1638 35.9978 81.9848 36.1153C81.8058 36.2329 81.5698 36.2915 81.2767 36.2915H81.277Z" fill="white"/>
<path d="M85.8346 36.2365V31.3184H86.445V34.7247L87.8918 31.3184H88.3863V36.2365H87.7822V32.7756L86.3473 36.2365H85.8346Z" fill="white"/>
<path d="M91.8694 36.2365V31.3184H92.5593V33.4436H93.829V31.3184H94.5189V36.2365H93.829V33.9354H92.5593V36.2365H91.8694Z" fill="white"/>
<path d="M102.196 36.2365V31.3184H102.886V33.4436H104.156V31.3184H104.845V36.2365H104.156V33.9354H102.886V36.2365H102.196Z" fill="white"/>
<path d="M109.592 36.2915C109.259 36.2915 108.992 36.227 108.792 36.0972C108.593 35.9677 108.451 35.7823 108.365 35.5416C108.28 35.3009 108.237 35.0182 108.237 34.6944V32.8303C108.237 32.5065 108.281 32.2283 108.368 31.9954C108.455 31.7625 108.598 31.5845 108.795 31.461C108.993 31.3374 109.259 31.2759 109.592 31.2759C109.926 31.2759 110.19 31.3386 110.386 31.4639C110.581 31.5893 110.723 31.7677 110.81 31.9984C110.898 32.2291 110.941 32.5065 110.941 32.8303V34.7004C110.941 35.0201 110.897 35.2994 110.81 35.5382C110.723 35.7771 110.581 35.9622 110.386 36.0938C110.19 36.2255 109.926 36.2912 109.592 36.2912V36.2915ZM109.592 35.7511C109.775 35.7511 109.914 35.7137 110.007 35.6387C110.101 35.5638 110.164 35.4585 110.196 35.3231C110.229 35.1874 110.245 35.0286 110.245 34.8465V32.6909C110.245 32.5087 110.229 32.3519 110.196 32.2202C110.164 32.0885 110.101 31.9873 110.007 31.9164C109.914 31.8456 109.775 31.81 109.592 31.81C109.409 31.81 109.27 31.8452 109.174 31.9164C109.078 31.9873 109.014 32.0885 108.982 32.2202C108.949 32.3519 108.933 32.5084 108.933 32.6909V34.8465C108.933 35.0286 108.949 35.1877 108.982 35.3231C109.014 35.4589 109.078 35.5638 109.174 35.6387C109.27 35.7137 109.409 35.7511 109.592 35.7511Z" fill="white"/>
<path d="M114.266 36.9837V36.4555C114.478 36.4759 114.641 36.4759 114.757 36.4555C114.873 36.4351 114.955 36.3936 115.002 36.3309C115.048 36.2682 115.072 36.1833 115.072 36.0757C115.072 35.9686 115.059 35.8399 115.035 35.69L114.058 31.3182H114.712L115.127 33.4131L115.377 34.9734L115.597 33.4249L115.969 31.3179H116.628L115.743 35.7019C115.703 35.9003 115.669 36.0743 115.643 36.2241C115.616 36.3739 115.58 36.5015 115.533 36.6065C115.486 36.7118 115.416 36.7949 115.322 36.8554C115.229 36.9162 115.097 36.9566 114.928 36.9767C114.76 36.9971 114.539 36.9989 114.266 36.9826L114.266 36.9837Z" fill="white"/>
<path d="M120.337 36.2365V31.8283H119.501V31.3184H121.839V31.8283H121.027V36.2365H120.337Z" fill="white"/>
<path d="M125.023 36.2363V31.3179H127.147V31.8156H125.713V33.3641H125.865C126.224 33.3641 126.52 33.4057 126.754 33.4887C126.988 33.5718 127.163 33.7165 127.279 33.9231C127.395 34.1296 127.453 34.4208 127.453 34.7976C127.453 35.0528 127.422 35.2702 127.361 35.4504C127.3 35.6307 127.206 35.7794 127.077 35.8966C126.949 36.0142 126.788 36.1002 126.595 36.1547C126.402 36.2096 126.171 36.2367 125.902 36.2367H125.023V36.2363ZM125.713 35.7445H125.908C126.112 35.7445 126.28 35.7212 126.412 35.6748C126.544 35.6284 126.642 35.5361 126.705 35.3985C126.768 35.2609 126.8 35.0584 126.8 34.7913C126.8 34.4553 126.735 34.2164 126.607 34.0748C126.479 33.9331 126.24 33.8622 125.89 33.8622H125.713V35.7445Z" fill="white"/>
<path d="M130.685 36.9837V36.4555C130.897 36.4759 131.061 36.4759 131.177 36.4555C131.293 36.4351 131.374 36.3936 131.421 36.3309C131.468 36.2682 131.491 36.1833 131.491 36.0757C131.491 35.9686 131.479 35.8399 131.455 35.69L130.478 31.3182H131.131L131.546 33.4131L131.797 34.9734L132.016 33.4249L132.389 31.3179H133.048L132.163 35.7019C132.122 35.9003 132.089 36.0743 132.062 36.2241C132.036 36.3739 131.999 36.5015 131.953 36.6065C131.906 36.7118 131.835 36.7949 131.742 36.8554C131.648 36.9162 131.517 36.9566 131.348 36.9767C131.179 36.9971 130.958 36.9989 130.686 36.9826L130.685 36.9837Z" fill="white"/>
<path d="M136.214 36.2365V31.3184H136.903V33.5041H137.16L138.045 31.3184H138.735L137.758 33.6561L138.857 36.2365H138.167L137.166 33.8382H136.903V36.2365H136.214Z" fill="white"/>
<path d="M143.286 36.2915C142.953 36.2915 142.686 36.227 142.486 36.0972C142.287 35.9677 142.144 35.7823 142.059 35.5416C141.974 35.3009 141.931 35.0182 141.931 34.6944V32.8303C141.931 32.5065 141.975 32.2283 142.062 31.9954C142.149 31.7625 142.292 31.5845 142.489 31.461C142.687 31.3374 142.953 31.2759 143.286 31.2759C143.62 31.2759 143.884 31.3386 144.08 31.4639C144.275 31.5893 144.417 31.7677 144.504 31.9984C144.592 32.2291 144.635 32.5065 144.635 32.8303V34.7004C144.635 35.0201 144.591 35.2994 144.504 35.5382C144.417 35.7771 144.275 35.9622 144.08 36.0938C143.884 36.2255 143.62 36.2912 143.286 36.2912V36.2915ZM143.286 35.7511C143.469 35.7511 143.608 35.7137 143.701 35.6387C143.795 35.5638 143.858 35.4585 143.89 35.3231C143.923 35.1874 143.939 35.0286 143.939 34.8465V32.6909C143.939 32.5087 143.923 32.3519 143.89 32.2202C143.858 32.0885 143.795 31.9873 143.701 31.9164C143.608 31.8456 143.469 31.81 143.286 31.81C143.103 31.81 142.964 31.8452 142.868 31.9164C142.772 31.9873 142.708 32.0885 142.676 32.2202C142.643 32.3519 142.627 32.5084 142.627 32.6909V34.8465C142.627 35.0286 142.643 35.1877 142.676 35.3231C142.708 35.4589 142.772 35.5638 142.868 35.6387C142.964 35.7137 143.103 35.7511 143.286 35.7511Z" fill="white"/>
<path d="M148.021 36.2363V31.3179H149.156C149.38 31.3179 149.575 31.342 149.739 31.3909C149.904 31.4395 150.041 31.5144 150.151 31.6153C150.261 31.7166 150.343 31.8449 150.395 32.0011C150.448 32.1568 150.475 32.3401 150.475 32.5504C150.475 32.7529 150.45 32.9279 150.399 33.0756C150.348 33.2232 150.271 33.3396 150.167 33.4246C150.063 33.5095 149.93 33.564 149.767 33.5885C149.966 33.633 150.127 33.709 150.249 33.8162C150.371 33.9234 150.461 34.061 150.521 34.229C150.58 34.3971 150.609 34.5985 150.609 34.8332C150.609 35.0439 150.585 35.236 150.536 35.41C150.487 35.5839 150.411 35.7319 150.307 35.8532C150.203 35.9745 150.071 36.0687 149.91 36.1355C149.75 36.2022 149.559 36.2356 149.34 36.2356H148.021V36.2363ZM148.711 35.7445H149.175C149.484 35.7445 149.69 35.6726 149.794 35.529C149.898 35.3855 149.95 35.1537 149.95 34.8336C149.95 34.627 149.923 34.4542 149.868 34.3144C149.813 34.1745 149.725 34.0692 149.605 33.9987C149.485 33.9279 149.323 33.8923 149.12 33.8923H148.711V35.7442L148.711 35.7445ZM148.711 33.37H149.12C149.315 33.37 149.468 33.3426 149.578 33.2881C149.687 33.2332 149.765 33.1453 149.81 33.024C149.854 32.9027 149.877 32.7447 149.877 32.5504C149.877 32.3237 149.842 32.1598 149.773 32.0586C149.704 31.9573 149.596 31.8935 149.449 31.8675C149.303 31.8412 149.112 31.8279 148.876 31.8279H148.711V33.37Z" fill="white"/>
</g>
<defs>
<clipPath id="clip0_2001_503">
<rect width="151" height="37" fill="white"/>
</clipPath>
</defs>
</svg>
